HIERARCHY
ROOT pelvis
{
	OFFSET 0.000000 0.657198 -0.000000
	CHANNELS 6 Xposition Yposition Zposition Xrotation Yrotation Zrotation
	JOINT spine
	{
		OFFSET 0.000000 0.000000 0.000000
		CHANNELS 6 Xposition Yposition Zposition Xrotation Yrotation Zrotation
		JOINT spine.001
		{
			OFFSET 0.000000 0.219692 0.011514
			CHANNELS 3 Xrotation Yrotation Zrotation
			JOINT neck
			{
				OFFSET 0.000000 0.218353 -0.026810
				CHANNELS 6 Xposition Yposition Zposition Xrotation Yrotation Zrotation
				JOINT face
				{
					OFFSET 0.000000 0.147260 -0.002570
					CHANNELS 6 Xposition Yposition Zposition Xrotation Yrotation Zrotation
					End Site
					{
						OFFSET 0.000000 -0.006518 0.024914
					}
				}
			}
			JOINT shoulder.L
			{
				OFFSET 0.000000 0.218353 -0.026810
				CHANNELS 6 Xposition Yposition Zposition Yrotation Xrotation Zrotation
				JOINT upper_arm.L
				{
					OFFSET 0.140826 0.000000 0.000000
					CHANNELS 6 Xposition Yposition Zposition Xrotation Yrotation Zrotation
					JOINT forearm.L
					{
						OFFSET 0.217520 0.000806 -0.000097
						CHANNELS 6 Xposition Yposition Zposition Xrotation Yrotation Zrotation
						End Site
						{
							OFFSET 0.163457 -0.001106 0.002764
						}
					}
				}
			}
			JOINT shoulder.R
			{
				OFFSET 0.000000 0.218353 -0.026810
				CHANNELS 6 Xposition Yposition Zposition Yrotation Xrotation Zrotation
				JOINT upper_arm.R
				{
					OFFSET -0.140826 0.000000 0.000000
					CHANNELS 6 Xposition Yposition Zposition Xrotation Yrotation Zrotation
					JOINT forearm.R
					{
						OFFSET -0.224204 0.000806 -0.000097
						CHANNELS 6 Xposition Yposition Zposition Xrotation Yrotation Zrotation
						End Site
						{
							OFFSET -0.162731 -0.001106 0.002751
						}
					}
				}
			}
		}
	}
	JOINT pelvis.L
	{
		OFFSET 0.000000 0.000000 0.000000
		CHANNELS 6 Xposition Yposition Zposition Yrotation Xrotation Zrotation
		End Site
		{
			OFFSET 0.091885 0.000000 0.000000
		}
	}
	JOINT pelvis.R
	{
		OFFSET 0.000000 0.000000 0.000000
		CHANNELS 6 Xposition Yposition Zposition Yrotation Xrotation Zrotation
		End Site
		{
			OFFSET -0.091885 0.000000 0.000000
		}
	}
	JOINT thigh.L
	{
		OFFSET 0.091885 0.000000 0.000000
		CHANNELS 6 Xposition Yposition Zposition Xrotation Yrotation Zrotation
		JOINT shin.L
		{
			OFFSET 0.016098 -0.307172 0.000000
			CHANNELS 6 Xposition Yposition Zposition Xrotation Yrotation Zrotation
			JOINT foot.L
			{
				OFFSET 0.014827 -0.282918 0.000000
				CHANNELS 6 Xposition Yposition Zposition Xrotation Yrotation Zrotation
				End Site
				{
					OFFSET 0.014923 -0.063895 0.152161
				}
			}
		}
	}
	JOINT thigh.R
	{
		OFFSET -0.091885 0.000000 0.000000
		CHANNELS 6 Xposition Yposition Zposition Xrotation Yrotation Zrotation
		JOINT shin.R
		{
			OFFSET -0.016176 -0.308658 0.000000
			CHANNELS 6 Xposition Yposition Zposition Xrotation Yrotation Zrotation
			JOINT foot.R
			{
				OFFSET -0.014947 -0.285213 0.000000
				CHANNELS 6 Xposition Yposition Zposition Xrotation Yrotation Zrotation
				End Site
				{
					OFFSET -0.014766 -0.063222 0.150557
				}
			}
		}
	}
}
MOTION
Frames: 10
Frame Time: 0.041667
-0.050161 -0.014023 0.003058 -0.000000 -3.216770 -0.000000 -0.000000 -0.000000 -0.000000 -3.328514 -0.083878 1.028055 10.004152 1.975298 -0.242635 -0.000000 0.218353 -0.026810 6.005735 0.747003 2.427293 -0.000000 0.147260 -0.002570 -5.413911 -0.000003 0.000001 -0.000000 0.218354 -0.026810 0.262473 -0.004899 2.138633 0.140826 -0.000000 0.000000 14.951183 19.070363 -76.563108 0.217520 0.000806 -0.000097 -18.104969 -34.088153 -56.562303 -0.000000 0.218354 -0.026810 0.256222 -0.004664 2.087608 -0.140826 -0.000000 -0.000000 15.764650 -22.272412 70.766258 -0.224204 0.000806 -0.000097 -2.797501 13.404479 26.330041 -0.000000 -0.000000 -0.000000 0.000014 -0.000001 3.901911 0.000000 0.000000 -0.000000 0.000000 -0.000000 3.901911 0.091672 0.006253 0.000000 5.035466 0.123816 -3.184618 0.016098 -0.307172 0.000000 1.682533 0.208013 8.094012 0.014827 -0.282918 0.000000 -13.898607 -4.719720 -1.258167 -0.091672 -0.006253 -0.000000 3.015225 0.135875 11.158773 -0.016176 -0.308658 0.000000 4.671204 -0.378428 -3.258025 -0.014947 -0.285213 0.000000 -9.551032 0.656383 -0.630930 
-0.049883 -0.013381 0.003448 -0.000000 -3.085155 -0.000000 0.000000 -0.000000 -0.000000 -3.452848 -0.090533 1.095025 10.004575 2.074243 -0.254791 0.000000 0.218354 -0.026810 6.057072 0.561673 2.184809 0.000000 0.147260 -0.002570 -5.203139 0.000006 -0.000000 -0.000000 0.218353 -0.026810 0.250228 -0.004449 2.039387 0.140826 -0.000000 0.000000 16.438768 20.637444 -77.413378 0.217520 0.000806 -0.000097 -17.028387 -31.710588 -57.490255 0.000000 0.218353 -0.026810 0.243997 -0.004232 1.988359 -0.140826 -0.000000 -0.000000 17.664162 -24.085798 72.653016 -0.224204 0.000806 -0.000097 -3.555236 15.267168 28.735460 -0.000000 -0.000000 -0.000000 0.000010 -0.000001 3.390392 0.000000 0.000000 -0.000000 0.000000 -0.000000 3.390354 0.091724 0.005434 0.000000 4.892254 0.117511 -3.249697 0.016098 -0.307172 0.000000 2.118470 0.261344 8.063496 0.014827 -0.282918 0.000000 -13.880553 -4.971176 -1.403889 -0.091724 -0.005434 -0.000000 3.011583 0.131427 10.996168 -0.016176 -0.308658 0.000000 4.878791 -0.386326 -3.049529 -0.014947 -0.285213 0.000000 -10.910882 1.559681 -0.281066 
-0.049903 -0.012703 0.003638 -0.000000 -2.975667 -0.000000 0.000000 -0.000000 -0.000000 -3.552923 -0.093130 1.114574 10.004865 2.123532 -0.260848 0.000000 0.218353 -0.026810 6.194194 0.394331 2.060884 -0.000000 0.147260 -0.002570 -5.165340 -0.000002 0.000001 -0.000000 0.218354 -0.026810 0.239547 -0.004075 1.951078 0.140826 -0.000000 -0.000000 16.788229 21.014098 -77.569536 0.217520 0.000806 -0.000097 -15.499586 -28.699919 -58.302194 0.000000 0.218353 -0.026810 0.233250 -0.003868 1.900017 -0.140826 -0.000000 -0.000000 19.484769 -25.811538 74.200935 -0.224204 0.000806 -0.000097 -5.342188 18.142451 35.242731 -0.000000 -0.000000 -0.000000 0.000038 -0.000001 2.964544 0.000000 0.000000 -0.000000 0.000000 -0.000000 2.964544 0.091762 0.004752 0.000000 4.716156 0.112661 -3.264614 0.016098 -0.307172 0.000000 2.555601 0.313363 7.978645 0.014827 -0.282918 0.000000 -13.885522 -5.148248 -1.505584 -0.091762 -0.004752 -0.000000 2.958663 0.127223 10.923048 -0.016176 -0.308658 0.000000 5.114244 -0.399159 -2.919672 -0.014947 -0.285213 0.000000 -11.871755 2.113129 -0.064278 
-0.050119 -0.012136 0.003801 -0.000000 -2.939587 -0.000000 -0.000000 -0.000000 -0.000000 -3.653175 -0.093665 1.109248 10.004756 2.109313 -0.259108 0.000000 0.218353 -0.026810 6.467201 0.245842 2.027246 -0.000000 0.147260 -0.002570 -5.323994 -0.000003 -0.000001 0.000000 0.218353 -0.026810 0.229996 -0.003762 1.873388 0.140826 0.000000 0.000000 15.692254 19.843964 -77.025894 0.217520 0.000806 -0.000097 -13.716632 -25.272321 -59.237486 0.000000 0.218353 -0.026810 0.223700 -0.003558 1.822321 -0.140826 0.000000 -0.000000 20.904424 -27.090134 75.392584 -0.224204 0.000806 -0.000097 -8.729658 21.380799 46.913475 -0.000000 0.000000 -0.000000 -0.000002 0.000000 2.680950 -0.000000 0.000000 -0.000000 0.000000 -0.000000 2.680950 0.091784 0.004298 -0.000000 4.532094 0.108620 -3.255454 0.016098 -0.307172 0.000000 2.991798 0.363938 7.868013 0.014827 -0.282918 0.000000 -13.970104 -5.199440 -1.530793 -0.091784 -0.004298 -0.000000 2.866876 0.123502 10.932110 -0.016176 -0.308658 0.000000 5.380374 -0.417660 -2.871008 -0.014947 -0.285213 0.000000 -12.413343 2.341913 0.016826 
-0.050240 -0.011897 0.004225 -0.000000 -3.032797 -0.000000 0.000000 -0.000000 -0.000000 -3.786564 -0.097206 1.135378 10.004627 2.072228 -0.254541 0.000000 0.218353 -0.026810 6.834638 0.125780 1.957829 0.000000 0.147260 -0.002570 -5.566787 -0.000003 -0.000000 0.000000 0.218353 -0.026810 0.221808 -0.003499 1.806830 0.140826 -0.000000 -0.000000 13.931552 17.869650 -76.283787 0.217520 0.000806 -0.000097 -12.057223 -22.015279 -60.476879 0.000000 0.218354 -0.026810 0.215554 -0.003301 1.755856 -0.140826 -0.000000 -0.000000 21.534965 -27.392646 76.438156 -0.224204 0.000806 -0.000097 -12.569866 23.341965 59.283447 -0.000000 -0.000000 -0.000000 0.000040 -0.000001 2.518770 0.000000 0.000000 -0.000000 0.000000 -0.000000 2.518771 0.091796 0.004038 -0.000000 4.400514 0.104424 -3.282451 0.016098 -0.307172 0.000000 3.400718 0.411626 7.798796 0.014827 -0.282918 0.000000 -14.156509 -5.115369 -1.472663 -0.091796 -0.004038 -0.000000 2.781299 0.120314 10.952604 -0.016176 -0.308658 0.000000 5.655206 -0.437957 -2.849486 -0.014947 -0.285213 0.000000 -12.754663 2.496152 0.074915 
-0.050209 -0.012034 0.004863 -0.000000 -3.248241 -0.000000 0.000000 -0.000000 -0.000000 -3.930968 -0.104616 1.204073 10.004463 2.041826 -0.250804 -0.000000 0.218353 -0.026810 7.163963 0.073751 1.790567 -0.000000 0.147259 -0.002570 -5.763587 -0.000004 0.000000 0.000000 0.218353 -0.026810 0.218630 -0.003400 1.781266 0.140826 0.000000 -0.000000 12.626831 16.360417 -75.763300 0.217520 0.000806 -0.000097 -10.622413 -19.262143 -61.653727 0.000000 0.218354 -0.026810 0.212352 -0.003206 1.730246 -0.140826 -0.000000 -0.000000 21.231261 -26.575885 77.382041 -0.224204 0.000806 -0.000097 -14.895905 24.120690 66.186473 -0.000000 -0.000000 -0.000000 0.000022 -0.000001 2.397495 0.000000 0.000000 -0.000000 0.000000 -0.000000 2.397495 0.091804 0.003844 0.000000 4.340208 0.100566 -3.346464 0.016098 -0.307172 0.000000 3.748391 0.452897 7.773760 0.014827 -0.282918 0.000000 -14.381406 -4.946663 -1.362920 -0.091804 -0.003844 -0.000000 2.713407 0.117128 10.942286 -0.016176 -0.308658 0.000000 5.931963 -0.457398 -2.810514 -0.014947 -0.285213 0.000000 -13.055932 2.724008 0.178786 
-0.050168 -0.012405 0.005445 -0.000000 -3.502345 -0.000000 0.000000 -0.000000 -0.000000 -4.034093 -0.112049 1.276333 10.004101 1.957243 -0.240418 -0.000000 0.218353 -0.026810 7.333562 0.137374 1.575123 0.000000 0.147260 -0.002570 -5.851964 0.000002 -0.000000 -0.000000 0.218354 -0.026810 0.227398 -0.003673 1.852910 0.140826 0.000000 -0.000000 12.110859 15.778090 -75.474929 0.217520 0.000806 -0.000097 -9.427350 -17.185147 -62.160370 -0.000000 0.218353 -0.026810 0.221184 -0.003473 1.801885 -0.140826 -0.000000 0.000000 20.322348 -25.185015 77.997495 -0.224204 0.000806 -0.000097 -15.423998 24.617607 66.841768 0.000000 0.000000 0.000000 -0.000009 0.000000 2.267525 0.000000 0.000000 0.000000 0.000000 -0.000000 2.267487 0.091813 0.003636 -0.000000 4.314480 0.098004 -3.398604 0.016098 -0.307172 0.000000 4.025080 0.485311 7.744421 0.014827 -0.282918 0.000000 -14.556223 -4.785581 -1.259546 -0.091813 -0.003635 0.000000 2.644231 0.113273 10.904667 -0.016176 -0.308658 0.000000 6.212212 -0.475213 -2.740277 -0.014947 -0.285213 0.000000 -13.340157 2.977227 0.299898 
-0.050113 -0.012834 0.005966 -0.000000 -3.721089 -0.000000 0.000000 -0.000000 0.000000 -4.092608 -0.117091 1.325955 10.003230 1.737667 -0.213416 0.000000 0.218353 -0.026810 7.346306 0.360511 1.391695 0.000000 0.147260 -0.002570 -5.832776 0.000001 -0.000000 0.000000 0.218353 -0.026810 0.250530 -0.004459 2.040811 0.140826 -0.000000 0.000000 11.872952 15.529388 -75.262435 0.217520 0.000806 -0.000097 -8.608996 -15.935473 -61.931641 0.000000 0.218354 -0.026810 0.244233 -0.004240 1.989788 -0.140826 -0.000000 -0.000000 19.369737 -23.983385 78.084075 -0.224204 0.000806 -0.000097 -15.012735 24.958464 64.593249 0.000000 0.000000 0.000000 -0.000050 0.000001 2.157986 0.000000 0.000000 0.000000 0.000000 -0.000000 2.158023 0.091820 0.003460 0.000000 4.305242 0.096319 -3.437828 0.016098 -0.307172 0.000000 4.230005 0.509111 7.719588 0.014827 -0.282918 0.000000 -14.660945 -4.688526 -1.196970 -0.091820 -0.003460 -0.000000 2.591255 0.109579 10.841806 -0.016176 -0.308658 0.000000 6.448361 -0.487400 -2.635873 -0.014947 -0.285213 0.000000 -13.584376 3.182843 0.398486 
-0.049861 -0.013221 0.006737 -0.000000 -3.919258 -0.000000 0.000000 -0.000000 -0.000000 -4.162948 -0.121601 1.367534 10.002159 1.433238 -0.176028 0.000000 0.218353 -0.026810 7.319944 0.810900 1.285382 -0.000000 0.147260 -0.002570 -5.742897 -0.000004 -0.000001 -0.000000 0.218353 -0.026810 0.279660 -0.005562 2.278871 0.140826 0.000000 -0.000000 11.478500 15.052403 -75.132805 0.217520 0.000806 -0.000097 -8.145883 -15.377240 -61.204526 0.000000 0.218354 -0.026810 0.273452 -0.005314 2.227893 -0.140826 0.000000 -0.000000 18.620860 -23.211580 77.724015 -0.224204 0.000806 -0.000097 -14.513783 25.099912 62.499783 -0.000000 -0.000000 0.000000 0.000055 -0.000001 2.123732 -0.000000 0.000000 0.000000 0.000001 -0.000000 2.123694 0.091822 0.003405 0.000000 4.347455 0.093819 -3.528615 0.016098 -0.307172 0.000000 4.352101 0.526013 7.776534 0.014827 -0.282918 0.000000 -14.740510 -4.621061 -1.152981 -0.091822 -0.003405 -0.000000 2.612784 0.108194 10.741195 -0.016176 -0.308658 0.000000 6.556307 -0.487997 -2.504298 -0.014947 -0.285213 0.000000 -13.764382 3.374013 0.494562 
-0.049348 -0.013548 0.007921 -0.000000 -4.164180 -0.000000 0.000000 -0.000000 -0.000000 -4.290512 -0.127885 1.420301 10.001575 1.212997 -0.148949 0.000000 0.218354 -0.026810 7.363788 1.549862 1.261300 0.000000 0.147260 -0.002570 -5.651417 0.000002 -0.000000 0.000000 0.218353 -0.026810 0.303273 -0.006538 2.471328 0.140826 -0.000000 0.000000 11.061176 14.485638 -75.224985 0.217520 0.000806 -0.000097 -7.798797 -15.086621 -60.117167 -0.000000 0.218353 -0.026810 0.297061 -0.006273 2.420351 -0.140826 -0.000000 -0.000000 17.979061 -22.622413 77.209838 -0.224204 0.000806 -0.000097 -14.040588 24.964145 61.104156 -0.000000 -0.000000 0.000000 0.000016 -0.000001 2.175356 -0.000000 0.000000 0.000000 0.000000 -0.000000 2.175356 0.091819 0.003488 -0.000000 4.463795 0.089545 -3.702685 0.016098 -0.307172 0.000000 4.406797 0.539050 7.941003 0.014827 -0.282918 0.000000 -14.835931 -4.504838 -1.079324 -0.091819 -0.003488 -0.000000 2.728277 0.109815 10.608628 -0.016176 -0.308658 0.000000 6.521842 -0.477994 -2.374547 -0.014947 -0.285213 0.000000 -13.863049 3.629353 0.633914 
